<svg xmlns="http://www.w3.org/2000/svg" viewBox="0 0 32.998 32.998"><path d="M12.165 26.384a.498.498 0 0 1-.36-.153l-7.298-7.565a.5.5 0 0 1-.14-.347V15.76c0-.6.36-1.127.918-1.343 6.138-2.375 20.57-7.9 22.009-7.9 1.712 0 3.328.782 4.433 2.146a5.66 5.66 0 0 1 1.146 4.757c-.473 2.236-2.294 4.011-4.531 4.415a5.728 5.728 0 0 1-3.721-.574l-6.427 8.317a1.437 1.437 0 0 1-1.712.428c-.842-.367-2.483-.818-4.027.285a.493.493 0 0 1-.29.093zm-6.798-8.266l6.871 7.123c1.832-1.085 3.674-.574 4.645-.15a.435.435 0 0 0 .521-.123l6.696-8.665a.498.498 0 0 1 .665-.115 4.66 4.66 0 0 0 3.401.664c1.841-.333 3.341-1.794 3.73-3.638a4.605 4.605 0 0 0-.945-3.92c-.901-1.112-2.268-1.775-3.656-1.775-.861.007-9.561 3.155-21.648 7.833a.435.435 0 0 0-.279.41v2.356zM7.034 12.183a1.84 1.84 0 0 1-1.72-1.199 1.838 1.838 0 0 1 1.084-2.358L7.2 8.33a1.835 1.835 0 0 1 1.274 3.441l-.801.296a1.821 1.821 0 0 1-.639.116zm.801-2.968a.836.836 0 0 0-.289.052l-.801.297a.837.837 0 0 0-.493 1.073.837.837 0 0 0 1.073.493l.801-.296a.837.837 0 0 0 .494-1.073.838.838 0 0 0-.785-.546zM12.042 10.329a1.84 1.84 0 0 1-1.667-2.602c.205-.445.57-.784 1.03-.954l.801-.297c.461-.17.959-.151 1.404.054a1.836 1.836 0 0 1-.129 3.387l-.801.297a1.83 1.83 0 0 1-.638.115zm.801-2.968a.836.836 0 0 0-.289.052l-.801.297a.832.832 0 0 0-.493 1.073.836.836 0 0 0 1.073.494l.801-.297a.832.832 0 0 0 .492-1.073.834.834 0 0 0-.783-.546zM17.049 8.475a1.84 1.84 0 0 1-1.72-1.199 1.821 1.821 0 0 1 .054-1.403c.205-.445.57-.784 1.03-.954l.801-.296a1.817 1.817 0 0 1 1.403.053c.445.205.784.57.954 1.03.17.459.151.958-.054 1.403-.205.445-.57.784-1.03.954l-.799.297a1.839 1.839 0 0 1-.639.115zm.804-2.968a.84.84 0 0 0-.291.052l-.802.297a.835.835 0 1 0 .581 1.567l.801-.297a.835.835 0 0 0-.289-1.619zM22.057 6.621a1.83 1.83 0 0 1-.765-.168 1.82 1.82 0 0 1-.955-1.03 1.838 1.838 0 0 1 1.083-2.358l.801-.296a1.836 1.836 0 0 1 2.304 2.487c-.205.445-.57.784-1.03.954l-.801.296a1.824 1.824 0 0 1-.637.115zm.802-2.968a.863.863 0 0 0-.291.052l-.801.296a.837.837 0 0 0-.059 1.542.824.824 0 0 0 .639.024l.801-.296a.83.83 0 0 0 .468-.435.826.826 0 0 0 .024-.638.825.825 0 0 0-.781-.545z"/><path d="M.5 22.921a.5.5 0 0 1-.335-.872l4.429-4.003a.501.501 0 0 1 .671.743L.836 22.792a.497.497 0 0 1-.336.129zM2.905 25.396a.5.5 0 0 1-.335-.872l4.429-4.004a.501.501 0 0 1 .671.743l-4.43 4.004a.5.5 0 0 1-.335.129zM5.31 27.87a.5.5 0 0 1-.335-.872l4.428-4.004a.501.501 0 0 1 .671.743l-4.428 4.004a.497.497 0 0 1-.336.129zM7.715 30.344a.5.5 0 0 1-.335-.872l4.428-4.003a.501.501 0 0 1 .671.743L8.05 30.215a.493.493 0 0 1-.335.129z"/></svg>